<svg xmlns="http://www.w3.org/2000/svg" fill="none" viewBox="0 0 24 24" id="Microsoft--Streamline-Svg-Logos" height="24" width="24">
  <desc>
    Microsoft Streamline Icon: https://streamlinehq.com
  </desc>
  <path fill="#706d6e" d="M23.75 11.761025V11.34775h-0.513225v-0.642525l-0.017275 0.005325 -0.48205 0.147475 -0.009475 0.0029v0.486825h-0.76085v-0.271175c0 -0.126275 0.02825 -0.222925 0.083875 -0.287375 0.055275 -0.063675 0.134325 -0.09605 0.235125 -0.09605 0.072475 0 0.147525 0.0171 0.223025 0.05075l0.018925 0.00845v-0.43525l-0.008875 -0.003275c-0.07045 -0.0253 -0.1663 -0.038075 -0.28505 -0.038075 -0.1497 0 -0.285725 0.032575 -0.404325 0.097125 -0.1187 0.06465 -0.212075 0.15695 -0.277475 0.2743 -0.065175 0.117225 -0.09825 0.2526 -0.09825 0.4024v0.298175h-0.357375v0.413275h0.357375v1.7411h0.513025v-1.7411h0.76085v1.10645c0 0.455675 0.214925 0.686625 0.6388 0.686625 0.069675 0 0.142975 -0.0082 0.21785 -0.0242 0.076175 -0.016375 0.128075 -0.032775 0.158625 -0.050275l0.00675 -0.004v-0.4171l-0.02085 0.0138c-0.02785 0.018575 -0.062525 0.033725 -0.103175 0.044975 -0.04085 0.0115 -0.07495 0.01725 -0.10135 0.01725 -0.0993 0 -0.17275 -0.02675 -0.218375 -0.07955 -0.046075 -0.0533 -0.069475 -0.1465 -0.069475 -0.27685v-1.017125H23.75Zm-3.798925 1.373575c-0.1862 0 -0.333 -0.06175 -0.436475 -0.183375 -0.104075 -0.12225 -0.156825 -0.296525 -0.156825 -0.51795 0 -0.228425 0.05275 -0.407225 0.156875 -0.531625 0.103525 -0.123575 0.248925 -0.1863 0.43225 -0.1863 0.177875 0 0.319475 0.0599 0.4209 0.17815 0.10195 0.118825 0.153675 0.2962 0.153675 0.527325 0 0.23395 -0.04865 0.41365 -0.144575 0.53385 -0.09525 0.1193 -0.2385 0.179925 -0.425825 0.179925Zm0.02285 -1.83875c-0.35525 0 -0.637425 0.104075 -0.8386 0.3094 -0.201025 0.205325 -0.303 0.48945 -0.303 0.8446 0 0.3373 0.099525 0.608625 0.2958 0.806275 0.19625 0.19775 0.463375 0.297925 0.793825 0.297925 0.344375 0 0.620925 -0.10555 0.822025 -0.3137 0.201075 -0.20795 0.30295 -0.489375 0.30295 -0.836225 0 -0.342575 -0.0956 -0.6159 -0.284225 -0.812275 -0.188725 -0.196425 -0.45415 -0.296 -0.788775 -0.296Zm-1.96875 -0.000025c-0.24165 0 -0.441525 0.061825 -0.594225 0.1837 -0.153625 0.122575 -0.23155 0.283375 -0.23155 0.47795 0 0.101125 0.016825 0.190975 0.04995 0.267175 0.0333 0.076475 0.08485 0.14375 0.1533 0.20025 0.067975 0.056025 0.172825 0.114725 0.311825 0.17445 0.116825 0.048075 0.203975 0.08875 0.259325 0.120825 0.0541 0.0314 0.092525 0.063 0.1142 0.093725 0.021075 0.0301 0.031775 0.071275 0.031775 0.12215 0 0.144725 -0.108375 0.215125 -0.3314 0.215125 -0.082725 0 -0.1771 -0.01725 -0.280475 -0.051325 -0.10345 -0.034 -0.200075 -0.0829 -0.2872 -0.145625l-0.0213 -0.01525v0.4939l0.007825 0.003625c0.0726 0.0335 0.1641 0.06175 0.271975 0.084 0.107675 0.02225 0.205475 0.0336 0.290475 0.0336 0.262225 0 0.473375 -0.062125 0.62745 -0.184725 0.155075 -0.123425 0.23365 -0.288025 0.23365 -0.48935 0 -0.1452 -0.0423 -0.26975 -0.1257 -0.370175 -0.0828 -0.099625 -0.226525 -0.19105 -0.42705 -0.2719 -0.159725 -0.064125 -0.26205 -0.117325 -0.30425 -0.158175 -0.040675 -0.039475 -0.06135 -0.095275 -0.06135 -0.16595 0 -0.06265 0.0255 -0.112825 0.077875 -0.1535 0.052775 -0.04085 0.1262 -0.061625 0.218325 -0.061625 0.085475 0 0.172925 0.0135 0.259875 0.03995 0.086925 0.02645 0.16325 0.061875 0.227 0.10525l0.02095 0.014325v-0.468525l-0.00805 -0.003475c-0.0588 -0.0252 -0.1363 -0.046775 -0.23045 -0.064275 -0.093775 -0.017325 -0.178825 -0.026125 -0.252775 -0.026125Zm-2.1632 1.838775c-0.18615 0 -0.333 -0.06175 -0.436425 -0.183375 -0.104125 -0.12225 -0.156775 -0.296475 -0.156775 -0.51795 0 -0.228425 0.0527 -0.407225 0.156875 -0.531625 0.103425 -0.123575 0.2488 -0.1863 0.4322 -0.1863 0.17785 0 0.319425 0.0599 0.420875 0.17815 0.101975 0.118825 0.153675 0.2962 0.153675 0.527325 0 0.23395 -0.048675 0.41365 -0.1446 0.53385 -0.09525 0.1193 -0.23845 0.179925 -0.425825 0.179925Zm0.0229 -1.83875c-0.355325 0 -0.6375 0.104075 -0.838575 0.3094 -0.20105 0.205325 -0.30305 0.48945 -0.30305 0.8446 0 0.33745 0.09955 0.608625 0.295825 0.806275 0.196275 0.19775 0.46335 0.297925 0.793825 0.297925 0.3443 0 0.620925 -0.10555 0.822025 -0.3137 0.201025 -0.20795 0.30295 -0.489375 0.30295 -0.836225 0 -0.342575 -0.095625 -0.6159 -0.284275 -0.812275 -0.188775 -0.196425 -0.45415 -0.296 -0.788725 -0.296Zm-1.9204 0.424975V11.34775h-0.506775v2.1543h0.506775v-1.102c0 -0.1874 0.0425 -0.341325 0.126325 -0.4576 0.082775 -0.1149 0.193075 -0.173125 0.32775 -0.173125 0.045625 0 0.096875 0.00755 0.15235 0.022425 0.05495 0.0148 0.094725 0.030875 0.1182 0.047775l0.021275 0.015425v-0.5109l-0.0082 -0.003525c-0.0472 -0.02005 -0.11395 -0.030175 -0.19845 -0.030175 -0.127325 0 -0.2413 0.040925 -0.3389 0.121475 -0.085675 0.070825 -0.147625 0.167925 -0.194975 0.289h-0.005375Zm-1.414275 -0.425c-0.232475 0 -0.43985 0.049875 -0.61625 0.14815 -0.17675 0.098475 -0.313425 0.239125 -0.40645 0.41795 -0.092575 0.178375 -0.139575 0.38675 -0.139575 0.619125 0 0.20355 0.045575 0.39035 0.13565 0.55495 0.09015 0.1649 0.217725 0.293925 0.379225 0.3834 0.16125 0.089375 0.34765 0.1347 0.554 0.1347 0.240825 0 0.44645 -0.048175 0.611325 -0.1431l0.006625 -0.00385v-0.46425l-0.021275 0.015525c-0.074675 0.0544 -0.158125 0.097825 -0.247925 0.1291 -0.089575 0.03125 -0.171225 0.04705 -0.242825 0.04705 -0.19885 0 -0.35845 -0.062225 -0.47435 -0.184875 -0.116125 -0.122825 -0.175 -0.2953 -0.175 -0.512325 0 -0.218425 0.0614 -0.3953 0.182425 -0.52585 0.120625 -0.13015 0.28055 -0.19615 0.475275 -0.19615 0.166575 0 0.3289 0.0564 0.48245 0.1678l0.021225 0.015425v-0.489175l-0.006825 -0.003875c-0.0578 -0.032325 -0.1366 -0.05905 -0.234475 -0.0793 -0.0974 -0.0202 -0.192675 -0.030425 -0.28325 -0.030425Zm-1.5113 0.051925h-0.506775v2.154325h0.506775V11.34775Zm-0.2482 -0.91775c-0.0834 0 -0.15615 0.0284 -0.215925 0.08465 -0.06 0.05645 -0.090475 0.127475 -0.090475 0.2113 0 0.082525 0.0301 0.15225 0.089525 0.2072 0.05905 0.05475 0.132025 0.0825 0.216875 0.0825 0.0848 0 0.158075 -0.02775 0.217825 -0.082425 0.06015 -0.055025 0.09065 -0.12475 0.09065 -0.207275 0 -0.0809 -0.029675 -0.151225 -0.088175 -0.209025 -0.058425 -0.057675 -0.13255 -0.086925 -0.2203 -0.086925Zm-1.2644 0.758825v2.313225h0.51715V10.495975h-0.71575l-0.909825 2.232825 -0.882925 -2.232825h-0.744925v3.006075h0.486v-2.31345h0.0167l0.932325 2.31345h0.366775l0.917775 -2.313225h0.0167Z" stroke-width="0.25"></path>
  <path fill="#f1511b" d="M2.63395 11.8754H0.25v-2.38395h2.38395v2.38395Z" stroke-width="0.25"></path>
  <path fill="#80cc28" d="M5.266225 11.8754h-2.3839v-2.38395h2.3839v2.38395Z" stroke-width="0.25"></path>
  <path fill="#00adef" d="M2.633875 14.50845H0.25V12.1245h2.383875v2.38395Z" stroke-width="0.25"></path>
  <path fill="#fbbc09" d="M5.266225 14.50845h-2.3839V12.1245h2.3839v2.38395Z" stroke-width="0.25"></path>
</svg>